<svg width="8" height="10" viewBox="0 0 8 10" fill="none" xmlns="http://www.w3.org/2000/svg">
<path d="M4.2193 8.64528C4.60526 8.64528 4.96199 8.56506 5.28947 8.40463C5.61696 8.24421 5.88596 8.02436 6.09649 7.7451C6.30702 7.45989 6.4269 7.13607 6.45614 6.77362H8C7.97076 7.34403 7.7807 7.87582 7.42982 8.36898C7.0848 8.85621 6.63158 9.25134 6.07018 9.55437C5.50877 9.85146 4.89181 10 4.2193 10C3.50585 10 2.88304 9.87225 2.35088 9.61676C1.82456 9.36126 1.38596 9.01069 1.03509 8.56506C0.690058 8.11943 0.429825 7.60844 0.254386 7.03209C0.0847953 6.44979 0 5.83482 0 5.18717V4.81283C0 4.16518 0.0847953 3.55318 0.254386 2.97683C0.429825 2.39453 0.690058 1.88057 1.03509 1.43494C1.38596 0.989305 1.82456 0.63874 2.35088 0.383244C2.88304 0.127748 3.50585 0 4.2193 0C4.96199 0 5.61111 0.154486 6.16667 0.463458C6.72222 0.766488 7.15789 1.18241 7.47368 1.71123C7.79532 2.23411 7.97076 2.82828 8 3.49376H6.45614C6.4269 3.09566 6.31579 2.73619 6.12281 2.41533C5.93567 2.09447 5.67836 1.83898 5.35088 1.64884C5.02924 1.45276 4.65205 1.35472 4.2193 1.35472C3.72222 1.35472 3.30409 1.45573 2.96491 1.65775C2.63158 1.85383 2.3655 2.12121 2.16667 2.45989C1.97368 2.79263 1.83333 3.16399 1.74561 3.57397C1.66374 3.97802 1.62281 4.39097 1.62281 4.81283V5.18717C1.62281 5.60903 1.66374 6.02496 1.74561 6.43494C1.82749 6.84492 1.96491 7.21628 2.15789 7.54902C2.35673 7.88176 2.62281 8.14914 2.95614 8.35116C3.29532 8.54724 3.71637 8.64528 4.2193 8.64528Z" fill="white"/>
</svg>
